<svg xmlns="http://www.w3.org/2000/svg" viewBox="0 0 271.94 309.35"><defs><style>.cls-1{fill:#f37920;}.cls-2{fill:#f37921;}</style></defs><g id="Layer_2" data-name="Layer 2"><g id="Layer_1-2" data-name="Layer 1"><path class="cls-1" d="M0,154.68c0-22.49.08-45,0-67.48,0-7.65,3.19-13.21,9.64-17Q67.84,36.5,126.1,2.84c6.45-3.74,13-3.82,19.52-.06Q204.2,36.62,262.73,70.54a17.59,17.59,0,0,1,9.2,16.09q0,68.06,0,136.1c0,7.4-3.49,12.79-9.84,16.47q-49.51,28.62-99,57.29c-5.82,3.37-11.64,6.76-17.48,10.1-6.51,3.72-13.06,3.66-19.52-.07Q67.68,272.76,9.32,238.92c-6.16-3.58-9.34-9-9.31-16.38C.1,199.92,0,177.3,0,154.68Zm78.84-13.11c.19,2.53.38,4.51.47,6.49.64,14.51,2.58,28.79,11.57,40.75,6.48,8.62,7.28,17.62,4.64,27.57a33.11,33.11,0,0,0,1,20.6c1.12,2.94,2.86,4.31,6.14,4.3q33.27-.14,66.56,0c3.28,0,5-1.34,6.12-4.28,2.77-7.29,2.68-14.58.66-22-2.44-9-1.3-17.19,4.2-25.21a62.74,62.74,0,0,0,9-19.11c2.12-8.11,2.34-16.72,3.36-25.12.15-1.26.16-2.53.25-4,11,5.51,23.79,3.4,31.85-5l-37.71-24.93C205,98.47,211.58,84.72,205.72,72.9c-8.56,12.41-12.3,15.27-25.89,18-7.49,1.5-15.07,3.35-22.84,1-10.41-3.17-21-3.49-31.8-2.18-8.54,1-16.64,4.36-25.74,2.63C85.91,89.75,72.9,87.1,66.09,72.93c-5.21,18.37,5.09,29.2,18.8,38.66L46.7,136.83C57.07,143.69,67,148.27,78.88,141.57Z"/><path class="cls-2" d="M135.82,232.3c-7.85,0-15.71-.19-23.55.08-3.74.14-5-1.7-4.21-4.65a39.07,39.07,0,0,1,3.93-9.56c1.76-3.13,4.34-5.8,6.25-8.86,6.2-9.94,8-20.82,6.19-32.31-1.2-7.52-6.39-12.47-11.75-17.24-3.07-2.73-6.23-5.38-9.14-8.27-5.23-5.21-7.34-11.84-7.51-19-.13-5.22.49-10.45.63-15.68.09-3.56,1.74-6,4.51-8.12,12.59-9.52,27-11.7,42.14-10.3a52.41,52.41,0,0,1,26.39,9.45c3.6,2.59,5.7,5.74,5.7,10.25,0,5.6.41,11.2.16,16.78-.36,7.91-4.11,14.27-10,19.42-2.53,2.22-5,4.5-7.65,6.59-10.11,8-12.45,18.61-10.64,30.85a49.45,49.45,0,0,0,9.84,22.7,44.79,44.79,0,0,1,6.4,12.06c1.54,4.5.12,5.82-4.52,5.82Zm-.06-6.18c3.61,0,7.22.12,10.82-.07,1.06-.06,2.62-.77,3-1.6s-.43-2.33-1.18-3.08c-3.26-3.26-6.72-6.3-10-9.5-1.67-1.62-3.09-1.68-4.8,0-3.3,3.21-6.79,6.23-10,9.48-.75.75-1.44,2.35-1.13,3.16s1.89,1.5,3,1.56C128.78,226.24,132.27,226.12,135.76,226.12Z"/></g></g></svg>