<svg xmlns="http://www.w3.org/2000/svg" viewBox="0 0 272.08 309.31"><defs><style>.cls-1{fill:#01a4c8;}.cls-2{fill:#01a5c8;}</style></defs><g id="Layer_2" data-name="Layer 2"><g id="Layer_1-2" data-name="Layer 1"><path class="cls-1" d="M.1,154.63c0-22.37.08-44.75,0-67.12,0-7.92,3.3-13.63,10-17.52Q68,36.48,125.87,3c6.74-3.9,13.4-4,20.18,0q57.88,33.51,115.82,67c6.74,3.9,10.21,9.61,10.21,17.46q0,67.32,0,134.62c0,7.87-3.51,13.55-10.24,17.44Q203.76,273,145.69,306.59c-6.79,3.93-13.5,3.45-20.18-.44Q94.82,288.3,64.09,270.53c-17.47-10.11-34.86-20.36-52.44-30.25-8-4.5-11.77-10.71-11.65-20C.3,198.38.1,176.51.1,154.63ZM154.45,64.29c-.69,1.42-1,2-1.22,2.53q-21.79,53.31-43.57,106.61a55.58,55.58,0,0,0-3.94,21.93c.31,33.63,34.55,57.42,66,45.69,27.23-10.17,40.31-40.69,28.95-68.38-10.4-25.37-21.17-50.59-31.88-75.83C164.25,86.2,159.47,75.67,154.45,64.29ZM71.89,87.18c-6.8,18.29-13.3,35.55-19.58,52.89a16.62,16.62,0,0,0-.88,7.71C52.61,156,57.54,161.39,65.21,164c8.13,2.71,15.52.92,21.67-5.16,5.74-5.68,7-12.43,4.26-19.94-3.6-9.83-7.27-19.63-10.93-29.44C77.57,102.31,74.9,95.23,71.89,87.18Z"/><path class="cls-2" d="M154.64,76.84c2.2,7.11,4.32,14.24,6.61,21.32q12.85,39.65,25.82,79.25c5.15,15.7,2.48,29.7-9.36,41.27-10.07,9.84-22.53,11.41-35.43,7.23-13.33-4.31-20.87-14.27-23.84-27.84a35.08,35.08,0,0,1,1-18.85Q136.51,128,153.84,76.86Z"/></g></g></svg>