<svg xmlns="http://www.w3.org/2000/svg" viewBox="0 0 272.21 308.53"><defs><style>.cls-1{fill:#2d953e;}.cls-2{fill:#2e953f;}</style></defs><g id="Layer_2" data-name="Layer 2"><g id="Layer_1-2" data-name="Layer 1"><path class="cls-1" d="M272.15,154.57c0,21.82-.14,43.65.06,65.47.09,8.92-3.56,15.05-11.26,19.47q-57.19,32.78-114.21,65.87c-7.29,4.23-14.19,4.18-21.47,0Q67.76,272,10.13,238.85C3.38,235,0,229.29,0,221.43Q.08,154.27,0,87.12C0,79.42,3.27,73.78,9.9,70Q68,36.44,126,2.9q10.09-5.83,20.2,0Q203.76,36.19,261.34,69.4c7.44,4.28,10.93,10.34,10.86,18.95C272,110.42,272.15,132.49,272.15,154.57ZM137.2,59.34c-1.21,1.34-1.57,1.67-1.85,2.06a423.12,423.12,0,0,0-37.62,61.82c-8.67,17.7-13.74,36.28-13.4,56.09.24,14.08,4.17,26.79,15.37,36.3,8.4,7.13,18.46,10.59,29,13.14,1.18.28,2.94,1.39,3.06,2.31,1,7.1,1.66,14.25,2.44,21.52l-4.84.35v.4l5.17.38c.48,2.27.94,4.42,1.56,7.33.72-3,1.26-5.23,1.78-7.39l5-.3v-.45l-4.82-.31c.82-7.48,1.54-14.76,2.53-22,.14-1,1.5-2.12,2.55-2.57,5.36-2.32,10.91-4.21,16.19-6.67,12.16-5.69,21.34-14.29,24.74-27.73,3.56-14.1,2.16-28.24-.92-42.21-3.51-15.95-10.52-30.58-18.36-44.74C156,90.9,146.63,75.48,137.2,59.34Z"/><path class="cls-2" d="M156.39,141.55l-16.1,6.18c-1.28-8.63-2.51-17-3.74-25.29l-1.37,0c-1.74,16.13-3.48,32.26-5.24,48.54l-17.47-6.26-.51.86c5.25,6,10.63,11.92,15.66,18.12a11.9,11.9,0,0,1,2.52,6.55c.3,7.82.12,15.65.12,23.48-20.21-2.14-32.44-15.81-32.77-35.85-.32-19.44,4.73-37.51,13.61-54.49,7.6-14.55,16.05-28.65,24.14-42.94a20,20,0,0,1,1.53-2C152,101.1,166.7,123.77,174.3,150.06a83.36,83.36,0,0,1,2.75,35.14c-2.34,16.4-13.22,27.16-29.66,29.41-1.81.24-3.64.42-5.46.63,0-5-.15-9.87.1-14.69.07-1.29,1.23-2.65,2.18-3.74,6.88-7.87,13.84-15.68,20.37-24.19L141.53,184c0-5.93.42-11.12-.13-16.2-.47-4.25.81-7.38,3.32-10.55C148.56,152.44,152.1,147.37,156.39,141.55Z"/></g></g></svg>