<svg xmlns="http://www.w3.org/2000/svg" viewBox="0 0 452.62 365.1"><defs><style>.cls-1{fill:#231f20;}</style></defs><g id="Layer_2" data-name="Layer 2"><g id="Layer_1-2" data-name="Layer 1"><path class="cls-1" d="M137.81,41.11V0H314V40.91H452.62V365.1H0v-324ZM82.4,347.1H370V155.36a7.7,7.7,0,0,0-1.3.45q-60.17,34.09-120.29,68.28a4.84,4.84,0,0,0-1.8,3.52c-.22,4.17-.09,8.36-.09,12.34H205.3c0-4.14-.15-8,0-11.87a4.68,4.68,0,0,0-2.74-5q-58.77-33.18-117.43-66.52a29.32,29.32,0,0,0-2.78-1.22ZM17,59.05C17,71.65,17,84,17.15,96.3c0,1.07,1.41,2.48,2.51,3.1q90.51,51.45,181.08,102.78c1.36.77,2.74,1.53,4.38,2.44.15-2.16.26-3.81.36-5.38h41.14v5.82l10.29-5.82q87.63-49.68,175.29-99.33a4.47,4.47,0,0,0,2.67-4.62c-.16-7.24-.06-14.48-.06-21.72V59.05ZM64.19,347.24c0-.84.1-1.32.1-1.8q0-99,.06-198c0-2.27-.92-3.26-2.69-4.25-14-7.86-28-15.8-42-23.7-.78-.44-1.62-.8-2.43-1.19V347.24ZM434.71,118.46c-1.61.86-2.69,1.42-3.76,2-13.22,7.5-26.42,15-39.7,22.44a5.09,5.09,0,0,0-3,5.19q.12,97.71.06,195.41v3.59h46.4ZM155.15,40.76H295.82V18H155.15Z"/></g></g></svg>