<svg xmlns="http://www.w3.org/2000/svg" viewBox="0 0 390.77 536.09"><defs><style>.cls-1{fill:#231f20;}.cls-2{fill:#242021;}</style></defs><g id="Layer_2" data-name="Layer 2"><g id="Layer_1-2" data-name="Layer 1"><path class="cls-1" d="M277.16,523.45l-10.05,12.63L203.47,485.6v38.74H186.72v-39.7l-64.86,51.45-10.1-12.72c10.41-8.28,20.65-16.44,30.9-24.58,13.92-11.06,27.88-22.06,41.74-33.2a5.89,5.89,0,0,0,2.11-3.91q.15-66,.07-132a8,8,0,0,0-.14-1H0V25.24H186.42V0h16.9V24.94H390.77V328.37H203.45v4q0,64.26-.07,128.53a7.19,7.19,0,0,0,3.1,6.4q34.72,27.36,69.3,54.91C276.24,522.57,276.65,523,277.16,523.45ZM16.13,42V311.45H373.92V42Z"/><path class="cls-2" d="M112.14,125.6h36.53c0,6.12.14,12.17-.07,18.2-.08,2.43.86,3.73,2.72,5.08Q187.8,175.36,224.15,202a10.32,10.32,0,0,0,7.07,2.24c4-.22,8.53,1.09,11.76-.48s5.15-5.85,7.6-9q36.51-46.5,72.95-93.06a10.82,10.82,0,0,0,2-6c.22-8.19.09-16.38.09-24.81H362v36.29c-6.26,0-12.65.11-19-.06a5.37,5.37,0,0,0-4.9,2.46q-38.79,49.62-77.77,99.09a11.5,11.5,0,0,0-2.79,7.9c.22,8.16.07,16.32.07,24.63H220.31c0-5.7-.25-11.5.09-17.28.2-3.57-1.1-5.61-3.94-7.65-23.22-16.76-46.41-33.58-69.4-50.67-4.09-3-8.18-3.56-12.93-3.79-4.45-.21-6.8,1.36-9.14,5-19.19,30-38.63,59.9-57.88,89.88a13.06,13.06,0,0,0-1.93,6.44c-.21,9.22-.09,18.45-.09,27.87H28.75V254.75c5.85,0,11.66-.08,17.47.05a4.29,4.29,0,0,0,4.21-2.28q30.09-46.71,60.27-93.35a9.67,9.67,0,0,0,1.38-4.85C112.21,144.85,112.14,135.38,112.14,125.6Z"/></g></g></svg>