<svg xmlns="http://www.w3.org/2000/svg" viewBox="0 0 323.96 491.98"><defs><style>.cls-1{fill:#252122;}.cls-2{fill:#231f20;}</style></defs><g id="Layer_2" data-name="Layer 2"><g id="Layer_1-2" data-name="Layer 1"><path class="cls-1" d="M324,452.4H252.47V492c-2.22-1.3-3.8-2.2-5.35-3.15-10.34-6.28-20.69-12.53-31-18.92a3.78,3.78,0,0,0-4.67,0c-10.49,6.51-21.06,12.88-31.61,19.29l-4.35,2.62V452.65H.05v-3.94Q.05,284,0,119.2a7.48,7.48,0,0,1,2.48-5.83Q58,58.09,113.33,2.68A8.28,8.28,0,0,1,119.84,0q100,.11,199.92.06H324Zm-17.37-17.34V17.7c-1-.06-1.77-.14-2.51-.14H125.94c-4.16,0-6.34,2.22-6.34,6.42q0,45.87,0,91.73v4.06h-95c-5.56,0-7.28,1.71-7.28,7.23V435h158c0-12.8.07-25.39-.13-38,0-1-1.75-2.51-3-2.85-3.7-1.07-7.6-1.46-11.31-2.52-4.52-1.29-6.34-3.87-6.32-8.49a37.66,37.66,0,0,1,.62-7.43c1.46-7.06,0-13-5.66-17.86a33,33,0,0,1-5-5.55c-3-4.07-3.05-7.63,0-11.63a93.6,93.6,0,0,1,7-7.74,13.28,13.28,0,0,0,3.95-11.56,111.37,111.37,0,0,1-1-11.53c-.1-4.51,1.65-6.95,6-8.32a63.53,63.53,0,0,1,9.48-2.06c5.61-.85,9.68-3.61,12.2-8.75a64.64,64.64,0,0,1,4.62-8.1c2.88-4.22,6.2-5.24,11.05-3.43,3.14,1.17,6.19,2.63,9.21,4.11a13.94,13.94,0,0,0,12.93.13,101.77,101.77,0,0,1,9.55-4.26c4.86-1.78,8.18-.74,11,3.48a99.38,99.38,0,0,1,5,8.77c2.26,4.21,5.55,6.93,10.38,7.72,3.32.55,6.65,1.12,9.9,2,5.22,1.41,7.45,4.48,7.19,9.88a83,83,0,0,1-1.12,9.28c-.73,4.59.16,8.65,3.44,12.09,2.32,2.44,4.71,4.83,6.85,7.43,3.87,4.69,3.94,8.39.2,13.14a90.6,90.6,0,0,1-6.57,7.16,13.56,13.56,0,0,0-3.9,12.65c.44,2.46.77,4.93,1,7.41.74,7.36-1.7,10.69-8.91,12.22-2.81.6-5.63,1.12-8.46,1.58-2.43.4-3.5,1.38-3.45,4.17.19,11.35.07,22.71.09,34.07,0,.94.15,1.89.23,2.84ZM213.93,302.35a44.21,44.21,0,1,0,44.2,44.3A44.1,44.1,0,0,0,213.93,302.35Z"/><path class="cls-2" d="M53.54,166.74V149.2H270v17.54Z"/><path class="cls-2" d="M270.16,185.89v17.55H53.67V185.89Z"/><path class="cls-2" d="M270.16,222.6v17.53H53.68V222.6Z"/><path class="cls-2" d="M146.57,128.53V111H270v17.52Z"/></g></g></svg>