<svg xmlns="http://www.w3.org/2000/svg" viewBox="0 0 375.96 375.97"><defs><style>.cls-1{fill:#b9c933;}</style></defs><g id="Layer_2" data-name="Layer 2"><g id="Layer_1-2" data-name="Layer 1"><path class="cls-1" d="M188.13,376,0,187.83,187.82,0,376,188.14Q282.71,281.41,188.13,376ZM25,187l69.6,69.58L141,212.73c-11.91-5.69-20.41-14.27-24.9-26.41a45.22,45.22,0,0,1,1.6-36c9-19.41,31.1-30,52.08-25a44.5,44.5,0,0,1,26.17,16.88c10.82,14.44,12,30.3,5.7,47.23H243q51.83,0,103.65-.06c1.8,0,3.6-.88,5.61-1.4L188.15,23.86Zm147.34,2.45c2.89,0,4.82.27,6.62-.08a6.65,6.65,0,0,0,3.92-2.1c6.77-9.6,7.73-19.93,2.36-30.35s-14.41-15.84-26-15.95c-14.64-.15-27.19,11.36-28.91,25.77a29.46,29.46,0,0,0,21.3,31.66,5.57,5.57,0,0,0,6.29-1.61C162.09,192.53,166,187.21,172.33,189.48Zm119.3,58.67a13.3,13.3,0,0,0-1.86-.42c-12.46,0-24.91-.07-37.36.06a6.09,6.09,0,0,0-3.77,1.78c-6,6-11.79,12.16-17.63,18.28-2.68,2.81-5.31,5.66-8.48,9,13.36,0,25.79.06,38.22-.08a6.29,6.29,0,0,0,3.71-1.95c6.07-5.91,12-11.95,18-17.91C285.35,254.11,288.31,251.35,291.63,248.15Zm-64.87-.44c-12.44,0-24.1-.09-35.75.1a8.21,8.21,0,0,0-5.13,2.11c-8,7.62-15.89,15.45-23.8,23.22-1.08,1.07-2.12,2.19-3.64,3.77,11.7,0,22.53-.26,33.35.11,4.87.17,8.32-1.1,11.62-4.78C210.77,264,218.59,256.24,226.76,247.71Zm-48.92,75.61c12.71,0,24.43.07,36.15-.09a6.78,6.78,0,0,0,4.08-2c7-6.79,13.79-13.73,20.69-20.58,2-2,4.07-3.81,6.11-5.71-8.41-.84-16.29-.21-24-1-10.48-1.05-19,1.24-24.94,10.46a8,8,0,0,1-1,1.06Zm155-116.78c-14.36,0-27.67,0-41,.08a6,6,0,0,0-3.74,1.88c-6,6.12-11.93,12.36-17.86,18.57-.7.73-1.32,1.53-2.3,2.67,13.6,0,26.55,0,39.5,0a4.71,4.71,0,0,0,3-.91C317.8,221.67,325,214.43,332.86,206.54ZM163.25,247.72c-11.49,0-22.5,0-33.51,0a2.65,2.65,0,0,0-1.66.68c-7.32,6.87-14.6,13.77-21.81,20.58,3.74,5.72,8.18,9.13,15.23,8,3.28-.53,6.72.1,10.06-.18A7.84,7.84,0,0,0,136,275c5.87-5.56,11.56-11.31,17.28-17C156.52,254.71,159.66,251.42,163.25,247.72ZM266.4,206.54c-9,0-17.14.54-25.11-.15-8.37-.73-15,1.23-19.92,8.27a22.68,22.68,0,0,1-2.93,2.86l-12.27,12.22c12.7,0,24.39,0,36.07-.05a4.53,4.53,0,0,0,2.95-1.13C252.06,221.55,258.82,214.44,266.4,206.54Zm-61.76,0c-5.91,0-11.71.61-17.34-.13-10.77-1.42-19.15,1.74-26,10.25-3.73,4.62-8.55,8.37-13.47,13.08,11.43,0,21.88,0,32.32,0a4.07,4.07,0,0,0,2.68-.87C190.05,221.53,197.22,214.15,204.64,206.54ZM157.37,320l24.76-25.84c-12.52,0-24.13.25-35.71-.12-4.69-.14-7.82,1.39-10,4.94Zm30.37,30.51L198,340.72H178.32Z"/><path class="cls-1" d="M150.52,115.94V94.54h17.55v21.4Z"/><path class="cls-1" d="M213.63,161.76h21.11v16.88H213.63Z"/><path class="cls-1" d="M83.9,178.57V161.82H105v16.75Z"/><path class="cls-1" d="M112.05,111.72l13.8,13.84-11.13,11.2L101,122.88Z"/><path class="cls-1" d="M111.57,228.89c-3.57-3.58-7.34-7.35-10.74-10.77l14.31-14.39,10.37,11.18Z"/><path class="cls-1" d="M203.84,136.86c-3.71-3.78-7.51-7.68-11-11.22,4.17-4.18,9.08-9.08,14-14L217.71,123C213.18,127.54,208.28,132.42,203.84,136.86Z"/></g></g></svg>