<svg xmlns="http://www.w3.org/2000/svg" viewBox="0 0 375.08 374.42"><defs><style>.cls-1{fill:#02a7ba;}</style></defs><g id="Layer_2" data-name="Layer 2"><g id="Layer_1-2" data-name="Layer 1"><path class="cls-1" d="M187.16,374.42,0,187.59Q94,93.77,187.92,0L375.08,186.84ZM352,187.79,187.59,23.71,23.15,187.86c1.56,1.3,3.64,2.58,5.1,4.37,2.45,3,5.29,3.79,9.1,3.76,27.25-.16,54.5-.08,81.75-.08h4a3.63,3.63,0,0,0,.09-1.07c-.27-1-.6-1.9-.9-2.85-7.16-22.56-4.07-43.65,9.78-62.85,17.53-24.28,35.39-48.31,53.12-72.45.78-1.06,1.64-2.06,2.59-3.26.62.74,1,1.18,1.39,1.67C207.46,80,225.9,104.9,244,130c10.72,14.81,14.62,31.53,12,49.6-.77,5.44-2.36,10.77-3.62,16.34q44.8,0,89.36,0a4.29,4.29,0,0,0,2.63-1C347.15,192.47,349.7,189.94,352,187.79ZM187.82,82.23c-1.08,1.36-1.86,2.29-2.59,3.27-12.83,17.47-25.59,35-38.52,52.39-8.76,11.77-12.64,24.89-10.52,39.32,4.45,30.17,32.12,47.57,57.81,44.31,32-4.07,53-35.91,43.56-66.68-2.54-8.3-7.46-15.08-12.48-21.9C212.74,116.2,200.45,99.42,187.82,82.23ZM50.48,214c.56.74.75,1.06,1,1.32q33.12,33.07,66.3,66.11a12.57,12.57,0,0,0,4.39,2.7q65.46,24.48,131,.06a14.27,14.27,0,0,0,5-3.12q32.55-32.34,65-64.8c.62-.62,1.11-1.37,1.76-2.17H294.55c-1.76,8.78-6.13,15.88-12.2,22.09A84.15,84.15,0,0,1,259,252.86C216.11,274,172.26,276,127.92,258c-21.15-8.58-40.51-19.78-47.34-44.06Zm226.48-.1c-11.6,0-22.72-.06-33.83.08a5.89,5.89,0,0,0-3.68,1.91c-28.78,30.74-74,31-102.89.39a7.06,7.06,0,0,0-5.81-2.43c-8.5.12-17,0-25.49,0H97.85c2.3,3.4,3.59,6.44,5.83,8.4,5.4,4.75,10.76,9.87,17,13.3,29.73,16.37,61.41,21.47,94.79,14.56,18-3.72,35-9.89,49.72-21.37C270.11,224.91,274.45,220.48,277,213.88ZM146.77,308.94c13.72,13.69,27.68,27.63,40.89,40.8L228.5,309A187.34,187.34,0,0,1,146.77,308.94Z"/></g></g></svg>