<svg xmlns="http://www.w3.org/2000/svg" viewBox="0 0 374.67 374.73"><defs><style>.cls-1{fill:#f37921;}</style></defs><g id="Layer_2" data-name="Layer 2"><g id="Layer_1-2" data-name="Layer 1"><path class="cls-1" d="M187.44,374.73,0,187.27Q93.57,93.67,187.24,0L374.67,187.47Zm-97-253.79L23.33,188c2.49,2.32,5.35,4.72,7.9,7.42a7.66,7.66,0,0,0,6.2,2.54q66-.12,132,0a6.54,6.54,0,0,0,5.67-2.69c9.19-11.32,18.48-22.56,27.73-33.84q7.17-8.76,14.36-17.59l-36.7-33.23c-15.29,15.85-30.29,31.42-45.39,47.09Q112.36,139,90.41,120.94Zm89.33-34,48.37,43.8L258,94.29,187.7,24l-85,85c10.14,8.35,20.58,16.94,31.12,25.6ZM351.27,188.08,269.9,106.69q-37,45-74.93,91.25h5q69.92.13,139.83.25a2.45,2.45,0,0,0,1.56-.55C344.85,194.31,348.32,190.93,351.27,188.08Zm-28.45,28.08H52.46C63.11,226.92,73.51,237.47,84,247.94a7.86,7.86,0,0,0,3.3,1.62c9.92,2.88,18.73.83,26.26-6.23,1.52-1.42,2.6-3.29,4.29-5.49,6.13,8.4,13.33,12.85,22.5,13,9.36.19,16.66-4.35,22.54-11.75,1.44,1.19,2.66,2,3.69,3.08,11,11.1,27.13,11.36,38,1.32,2.26-2.08,7-1.85,9.22.06,10.74,9.41,23.5,9.74,35.07.91,5.37-4.1,6.38-4.09,11.47.06,10.61,8.67,24.91,8.56,34.77-.78C304.43,235,313.32,225.67,322.82,216.16ZM103.74,267.54a1.81,1.81,0,0,0,.31.6c7.22,7.24,14.79,14.16,21.6,21.77,8.5,9.48,24.49,9.73,33.62,1,1.61-1.54,3.28-3,5-4.62,1.69,1.44,3.31,2.79,4.9,4.18,10.43,9.07,22.85,9.26,33.66.52a8.31,8.31,0,0,1,10.68.23,24.63,24.63,0,0,0,28.23,3c11.7-6.59,19.68-17.27,29.13-26-5.34-2.18-10.36-4.28-15.44-6.21a3.93,3.93,0,0,0-2.7.49c-14,7.18-27.93,7.11-41.93,0a4.22,4.22,0,0,0-3.32-.1c-14.11,7.28-28.16,7.24-42.29.05a4.25,4.25,0,0,0-3.32,0c-14,7.16-27.91,7.26-41.93.12a5.15,5.15,0,0,0-3.67-.07C112.09,264,108,265.79,103.74,267.54Zm47.4,46.39,36.47,36.46c11.79-11.78,24.09-24.08,35.94-35.91-4.41-1.71-9.32-3.71-14.33-5.46a5,5,0,0,0-3.4.51c-13.08,6.4-26.1,6.37-39.16,0a4.9,4.9,0,0,0-3.41-.44C159,310.61,154.81,312.43,151.14,313.93Z"/></g></g></svg>