<svg xmlns="http://www.w3.org/2000/svg" viewBox="0 0 290.27 399.13"><defs><style>.cls-1{fill:#034e27;}</style></defs><g id="Layer_2" data-name="Layer 2"><g id="Layer_1-2" data-name="Layer 1"><path class="cls-1" d="M145.22,132.14c5.8-7.71,11.34-15.79,17.66-23.22,3-3.5,4.15-5.94,2.66-10.78-3.86-12.57.66-23.55,8.92-33.11,11-12.78,25.7-19.87,41.3-25.27a126.3,126.3,0,0,1,13-3.61c5-1.15,9.35,1.35,10.18,6.32,3.28,19.8,3.7,39.52-4.2,58.49-5.24,12.57-14.24,21.3-27.89,24.27-10.77,2.35-20.14-1.34-28.95-7.89-12.69,13-21.45,27.92-23.9,46.62h4.21q48.2,0,96.38,0c20.13,0,34.58,13.69,35.69,33.73.37,6.63-2.83,10.07-9.44,10.1-5.5,0-11,.08-16.5,0-2.12,0-2.95.56-3.38,2.81q-13.74,72.84-27.7,145.65-3.36,17.61-6.73,35.21c-1,5.31-3.9,7.7-9.35,7.7h-144c-5.65,0-8.35-2.35-9.43-8Q46.47,300.84,29.29,210.55c-.42-2.24-1.29-2.84-3.41-2.8-5.62.12-11.25.08-16.87,0-5.95,0-9-3.09-9-9C-.13,179.07,15.05,164,35.31,164c32-.07,64,0,96,0h4.6c-3.2-20.49-10.73-39-21.21-56.69-7.69,4.44-15.45,7.64-24.12,8.15-15.31.92-27.37-5.49-37.25-16.56C40.62,84.64,34.55,67.35,30.82,49.07A180.6,180.6,0,0,1,27.37,9.28C27.49,3.43,30.88-.4,36.25,0c25.64,2.08,50.38,7.51,72.37,21.58A85.37,85.37,0,0,1,124.9,35.25c15.93,17.1,17.34,38.48,4.24,57.81-1.42,2.07-1.29,3.35-.18,5.54,5.3,10.41,10.27,21,15.35,31.51C144.73,131,145.09,131.86,145.22,132.14ZM45.71,208c9.38,49.15,18.71,98,28.05,147a17.27,17.27,0,0,0,2,.24q69,0,138,.06c2.31,0,2.82-.91,3.21-3q10.69-56.5,21.55-113c2-10.37,3.94-20.74,6-31.34ZM44.38,17.44a27.82,27.82,0,0,0-.21,2.92c.65,13.74,2.58,27.27,6.88,40.38,3.72,11.36,9,21.86,17.87,30.2,10.43,9.76,25.77,10.7,36.64,1.7C98.79,85,92.12,77.26,85.26,69.7c-3.74-4.12-4.22-9.22-.8-12.63s8.6-3.31,12.6.77c3.58,3.64,7,7.45,10.38,11.28s6.37,7.54,9.73,11.55A26.74,26.74,0,0,0,121,64c-1.07-10.13-7-17.45-14.56-23.51C88.39,26,66.82,20.89,44.38,17.44ZM18,191.12H271.65a11.63,11.63,0,0,0-.51-1.57c-3.58-6.48-9.35-9-16.48-9H104.37c-22.74,0-45.48-.06-68.21,0C28.45,180.61,22.05,183.29,18,191.12ZM213.15,372H77.06L79,382.37H211.23C211.88,378.85,212.49,375.57,213.15,372ZM181,92.06c4.92-3,9.38-6,14-8.61S204.7,82,207,86.1c2.47,4.39.84,9.05-4,11.94-4.05,2.42-8,5-12.35,7.8,5.84,3.66,11.31,4.7,17.11,1.69s9.56-7.85,11.94-13.84c3.89-9.79,4.85-20,4.61-30.44-.07-2.79-.26-5.57-.41-8.68-3.36,1.18-6.1,2-8.75,3.1-11.3,4.6-22,10.15-29.61,20.13C182.48,81.86,180.5,86.36,181,92.06Z"/></g></g></svg>