<svg xmlns="http://www.w3.org/2000/svg" viewBox="0 0 237.37 458.7"><defs><style>.cls-1{fill:#044e27;}.cls-2{fill:#034e27;}.cls-3{fill:#044f28;}</style></defs><g id="Layer_2" data-name="Layer 2"><g id="Layer_1-2" data-name="Layer 1"><path class="cls-1" d="M60.55,99.33c-4.4-2.24-5.53-5.7-5.51-10.1.11-26.26.05-52.51.05-78.77C55.09,2.88,58,0,65.45,0H172c7.45,0,10.29,2.9,10.29,10.48,0,26.26-.05,52.51.06,78.77,0,4.25-1,7.62-5.18,10,5.27,8.25,5.48,17.44,5.06,26.69-.12,2.52.93,3.74,2.84,5.06,29.85,20.75,48,49.08,51.62,85.27,4.62,46.48-13.1,83.59-50.9,111-2.46,1.78-3.8,3.35-3.56,6.55.66,9-.51,17.69-5.36,25.68,4.23,2.19,5.51,5.52,5.49,10-.13,26.38-.06,52.77-.07,79.15,0,7.31-2.83,10.1-10.25,10.1H65.5c-7.63,0-10.41-2.74-10.41-10.33,0-26,.06-52-.06-78,0-4.55.76-8.4,5.19-10.84-5.28-8.31-5.4-17.44-5.09-26.6A5,5,0,0,0,52.72,328C15.58,301.81-2.66,265.91.31,220.55c2.48-37.78,20.63-67.47,51.56-89.24,2.46-1.73,3.43-3.44,3.27-6.36C54.64,116.09,55.57,107.47,60.55,99.33Zm160.07,130c0-56.18-45.79-102-101.91-102.05-55.37,0-102.09,46-102.1,100.48,0,57.61,45.26,103.71,101.85,103.72A102.08,102.08,0,0,0,220.62,229.36ZM72,441.74h93.35V371c-8,4.82-16.44,5-25,4.93-14.24-.08-28.48-.17-42.72,0-8.72.12-17.17-.62-25.06-4.69-.12-.07-.4.17-.61.28ZM165.43,17H72V87.71C80.71,82.35,90.12,83,99.47,83c15.61,0,31.24-.29,46.84.18,5.45.17,10.85,2.23,16.27,3.47a22.87,22.87,0,0,1,2.85,1.09Zm-.22,321.88q-46.5,18.86-93.12,0c-.66,11.91,6.67,20.05,18.47,20.2q28.47.38,57,0C158.71,358.91,166.48,349.8,165.21,338.87ZM165.4,120c.5-11.67-6.46-20-17.66-20.17q-29.39-.56-58.79,0a17.12,17.12,0,0,0-16.6,20C103.27,107.34,134.21,107.37,165.4,120Z"/><path class="cls-2" d="M118.62,320.64a91.27,91.27,0,1,1,91.28-88.95A91.18,91.18,0,0,1,118.62,320.64Zm74.49-90.94c0-41.25-32.75-74.26-74.31-74.85-40-.56-74.5,33.46-74.56,73.47-.07,41.92,32.81,75.34,74.3,75.55C159.31,304.06,193.08,270.48,193.11,229.7Z"/><path class="cls-3" d="M116.34,215.4c5.23-10.5,10.14-20.39,15.06-30.28,2.34-4.68,4.63-9.39,7-14,2.51-4.86,7.08-6.61,11.49-4.51s6,7.1,3.51,12.14c-7,14.08-14,28.11-20.9,42.22a9,9,0,0,0-.53,5.17c1,5.63-.19,10.53-4.64,14.19a13.17,13.17,0,0,1-14.73,1.94c-5.25-2.44-7.74-6.71-8.12-12.47a7.62,7.62,0,0,0-2-4.43c-5.35-5.6-10.92-11-16.37-16.5-4.41-4.45-4.73-9.55-.91-13.18,3.62-3.44,8.63-2.94,12.88,1.33C104.1,203,110,209,116.34,215.4Z"/></g></g></svg>