<svg xmlns="http://www.w3.org/2000/svg" viewBox="0 0 503.97 558.09"><defs><style>.cls-1{fill:#022634;}.cls-2{fill:#024d26;}.cls-3{fill:#02a7ba;}.cls-4{fill:#c4d72f;}.cls-5{fill:#ed6a24;}.cls-6{fill:#faa91a;}</style></defs><g id="Layer_2" data-name="Layer 2"><g id="Layer_1-2" data-name="Layer 1"><path class="cls-1" d="M279.39,558.09C149.66,557.24,36.11,468.44,7.79,342-14.4,242.86,11,155.46,81.66,82.31c41.15-42.6,92-68.28,150.38-78C293-5.82,351.77,1.73,407.61,28.76c29.22,14.14,54.55,33.44,75.15,58.71,21.24,26.05,25.76,55.35,17,87.24-5.72,20.74-15.14,40-24.1,59.41-10.1,21.93-19.78,44-25.59,67.6-9.6,38.94-5.15,76.52,11.71,112.57,6.26,13.37,14,26,21.46,38.85,4.1,7.05,4,12-1.6,17.83q-65.87,68.13-159.48,82.89C308,556.05,293.65,556.72,279.39,558.09Zm178.92-97.58c-5.59-10.59-10.86-19.78-15.42-29.32-21.6-45.16-27-92.06-14.65-140.8,6.45-25.48,17.12-49.31,28.05-73.06,7.6-16.5,15.18-33,20.25-50.54,7.11-24.62,2.66-46.36-14.3-65.82a194.2,194.2,0,0,0-52.79-43c-53.79-29.66-111.36-38.8-171.73-29.6C183.68,36.59,137.45,61,98.79,99.54a253.56,253.56,0,0,0-63.43,252C70.71,469.32,186.11,545.39,308.27,531.22c43.39-5,83.12-20.08,118.65-45.57C437.91,477.76,448.1,468.74,458.31,460.51Z"/><path class="cls-2" d="M352.35,96.93a60.76,60.76,0,0,1,60.79,60.91c0,33.2-27.67,60.62-61,60.44a61,61,0,0,1-60.65-60.78C291.48,124.23,318.9,96.93,352.35,96.93Zm-.12,96.75a36.19,36.19,0,1,0-36.23-36A36,36,0,0,0,352.23,193.68Z"/><path class="cls-3" d="M267.31,157.47a60.74,60.74,0,1,1-121.47,0c0-33.48,27.41-60.58,61.19-60.55A60.52,60.52,0,0,1,267.31,157.47Zm-60.8,36.21a36.17,36.17,0,1,0-36.07-36.1A35.8,35.8,0,0,0,206.51,193.68Z"/><path class="cls-4" d="M109.55,218.17c33.63,0,60.91,27.09,60.91,60.49s-27.52,60.7-60.89,60.7a60.94,60.94,0,0,1-60.84-61.05C48.77,245.12,76,218.17,109.55,218.17Zm36.29,60.51a36.33,36.33,0,1,0-36.12,36.23A36.27,36.27,0,0,0,145.84,278.68Z"/><path class="cls-5" d="M352.51,363.48a60.5,60.5,0,0,1,60.63,60.94c0,33.14-27.54,60.24-61.15,60.21-33.09,0-60.32-27.27-60.52-60.53S318.69,363.47,352.51,363.48Zm36.14,60.42a36.33,36.33,0,1,0-36,36.32A36.28,36.28,0,0,0,388.65,423.9Z"/><path class="cls-6" d="M182.34,460.34c-33.74.31-61.25-28.35-60.7-61.39.54-32.76,27.78-60.06,60.83-60,33.39.1,60.76,27.52,60.75,60.83A60.74,60.74,0,0,1,182.34,460.34ZM218.61,400c.06-20.12-15.72-36.34-35.4-36.42-20.71-.09-37.05,15.67-37.25,35.92-.2,19.84,16.38,36.54,36.36,36.61A36.25,36.25,0,0,0,218.61,400Z"/></g></g></svg>