<svg xmlns="http://www.w3.org/2000/svg" viewBox="0 0 517.76 418.54"><defs><style>.cls-1{fill:#012432;}.cls-2{fill:#052836;}.cls-3{fill:#02a7ba;}.cls-4{fill:#032634;}.cls-5{fill:#022634;}</style></defs><g id="Layer_2" data-name="Layer 2"><g id="Layer_1-2" data-name="Layer 1"><path class="cls-1" d="M428.72,145.44h35.43c0-2.82,0-5.57,0-8.32,0-6.11,3.53-9.68,9.64-9.7,22.94-.07,42.78,19,43.91,42.22,1.15,23.58-13,42.58-35.53,47.51-2.43.54-4.92.82-7.39,1.16-6.37.87-11.11-3.64-10.79-10.12.13-2.58,0-5.16,0-7.91H53.84c0,2.85,0,5.63,0,8.4,0,6.37-4.69,10.34-11,9.64-10.16-1.13-19.42-4.27-27.34-11C1.6,195.57-3.74,174.68,2.73,157s23.07-29.59,41.16-29.56c6.12,0,9.68,3.42,9.88,9.55.09,2.7,0,5.41,0,8.47H89.06l18.08,0c1,0,2.07.12,3.11.13H407.53c1,0,2.07-.09,3.11-.13ZM53.89,181.73H463.83V164H53.89ZM35.67,198V147.67c-10.46,3.42-17.59,13.63-17.73,25A26.49,26.49,0,0,0,35.67,198Zm446.57-.15c10.06-2.8,17.6-13.59,17.6-25s-7.59-22.26-17.6-25Z"/><path class="cls-2" d="M259,218.22H453.4c8.26,0,12,4.46,10.42,12.63q-10.05,51.42-20.18,102.8-7.49,38.24-14.9,76.49c-1.12,5.77-4.91,8.77-10.83,8.36-1.25-.08-2.5-.08-3.75-.08H100.73c-7.88,0-10.32-2.08-11.83-9.77Q76.21,344,63.46,279.26c-3.17-16.12-6.2-32.26-9.53-48.34-1.81-8.77,4.09-12.85,10.73-12.82C129.45,218.31,194.24,218.22,259,218.22Zm185.19,18.53H73.58q16,81.81,32,163.19H412.19Q428.2,318.37,444.22,236.75Z"/><path class="cls-3" d="M428.72,145.44l-18.08,0V91.19H350.38c-7.92,0-11.22-3.28-11.22-11.16q0-28.89,0-57.79V18.47h-232V145.41l-18.08,0c0-4.06.09-8.11.09-12.17q0-60.75,0-121.5a29.48,29.48,0,0,1,.07-3.12c.58-5.47,4-8.6,9.55-8.6q54.51,0,109,0,69.51,0,139,0a11.14,11.14,0,0,1,8.6,3.52Q389.95,38.77,424.6,73.9a13.64,13.64,0,0,1,4.07,10.33C428.6,104.63,428.69,125,428.72,145.44Zm-31.18-73-40.26-41v41Z"/><path class="cls-4" d="M401.71,254.67a27.09,27.09,0,0,1,26.88,27.38c-.12,15.11-12.28,27.4-27,27.31S374.79,296.87,374.82,282A27.11,27.11,0,0,1,401.71,254.67Zm.12,36.25a9,9,0,1,0-9.06-8.82A9,9,0,0,0,401.83,290.92Z"/><path class="cls-4" d="M357.12,282.11c-.07,15.11-12.25,27.37-27.05,27.25-14.59-.12-26.68-12.52-26.71-27.39a27.21,27.21,0,0,1,27.33-27.3C345.37,254.78,357.2,267.06,357.12,282.11ZM330.44,273a9,9,0,1,0,8.73,9.08A8.86,8.86,0,0,0,330.44,273Z"/><path class="cls-4" d="M116.48,254.67c14.62.08,26.6,12.49,26.48,27.45s-12.33,27.36-27.1,27.24c-14.61-.11-26.66-12.48-26.67-27.39A27.12,27.12,0,0,1,116.48,254.67ZM116,290.92a9,9,0,0,0,.18-17.9,9,9,0,0,0-.18,17.9Z"/><path class="cls-4" d="M187.62,254.67c14.7,0,26.74,12.27,26.79,27.26s-12.28,27.49-27,27.43S160.69,297,160.66,282A27,27,0,0,1,187.62,254.67ZM187.56,273a9,9,0,0,0-.12,17.91,9,9,0,0,0,.12-17.91Z"/><path class="cls-4" d="M285.77,282c0,15.05-12.16,27.44-26.94,27.4S232,296.87,232,281.82a26.88,26.88,0,1,1,53.76.14Zm-35.69.12a8.83,8.83,0,1,0,8.71-9.06A8.73,8.73,0,0,0,250.08,282.08Z"/><path class="cls-5" d="M294.69,382.14c-14.37.14-26.82-12.23-26.95-26.77-.14-15.44,11.65-27.84,26.6-28,14.48-.15,26.92,11.92,27.05,26.25C321.54,369.6,309.93,382,294.69,382.14ZM303.37,355a8.79,8.79,0,0,0-8.52-9.27,9,9,0,0,0-.52,18A8.78,8.78,0,0,0,303.37,355Z"/><path class="cls-5" d="M392.75,354.82a27,27,0,0,1-26.67,27.31c-14.74.11-26.93-12.35-26.89-27.49s12-27.23,26.75-27.26C380.9,327.34,392.76,339.48,392.75,354.82Zm-17.92.16a8.9,8.9,0,0,0-8.49-9.27,9,9,0,0,0-.52,18A8.84,8.84,0,0,0,374.83,355Z"/><path class="cls-5" d="M223.24,382.14c-14.47.06-26.79-12.24-26.85-26.81-.07-15.56,11.59-27.81,26.6-27.95a27.12,27.12,0,0,1,27,26.92C250.1,369.69,238.18,382.08,223.24,382.14Zm-8.83-27.36a8.8,8.8,0,1,0,8.65-9.08A8.78,8.78,0,0,0,214.41,354.78Z"/><path class="cls-5" d="M151.79,382.13C137,382.13,125,369.81,125,354.56a27,27,0,0,1,26.79-27.18c14.92,0,26.81,12.25,26.77,27.53C178.55,369.9,166.49,382.14,151.79,382.13Zm.18-18.41a9,9,0,1,0-9-8.75A8.9,8.9,0,0,0,152,363.72Z"/></g></g></svg>