<svg xmlns="http://www.w3.org/2000/svg" viewBox="0 0 541.58 336.6"><defs><style>.cls-1{fill:#022634;}</style></defs><g id="Layer_2" data-name="Layer 2"><g id="Layer_1-2" data-name="Layer 1"><path class="cls-1" d="M270.33,336.39H14.77c-1.56,0-3.13.1-4.69.17a9.34,9.34,0,0,1-9.95-8.4A28.35,28.35,0,0,1,0,324.72V11.89C0,3.19,3.21,0,11.94,0H529.66c8.39,0,11.84,3.41,11.84,11.73q0,156.59.08,313.15c0,8.25-5.19,12.73-11.92,11.53a14,14,0,0,0-2.51,0ZM522.5,317.44V19H467V317.44ZM168.27,19V317.36h55.52V168.42h-7c-8.07,0-11.42-3.36-11.42-11.41q0-67.14,0-134.26V19Zm279.5,298.47V19H410.89v3.91q0,67.16,0,134.29c0,7.52-3.65,11.16-11.13,11.19-2.47,0-4.94,0-7.45,0v149Zm-298.67,0V19h-37V158c0,6.79-3.58,10.37-10.45,10.45-2.58,0-5.17,0-7.9,0v149Zm-74.48-149H67.13c-7.63,0-11-3.45-11-11.14V19H19V317.36H74.62Zm168.38,0v149h55.39v-149h-7.1c-7.88,0-11.23-3.36-11.23-11.23V19H261.55V80.9q0,38.13,0,76.24c0,7.73-3.58,11.25-11.35,11.27Zm130.12,149v-149H366c-8,0-11.45-3.44-11.45-11.44V19H336.17V157.43c0,7.33-3.63,10.95-11,11-2.49,0-5,0-7.55,0v149Z"/></g></g></svg>