<svg xmlns="http://www.w3.org/2000/svg" viewBox="0 0 278.99 470.9"><defs><style>.cls-1{fill:#034e26;}</style></defs><g id="Layer_2" data-name="Layer 2"><g id="Layer_1-2" data-name="Layer 1"><path class="cls-1" d="M129.76,433.73c0-9.12-.14-18.23.08-27.33.08-2.89-1-4.46-3.22-6q-36.2-25-72.23-50.17c-23.43-16.43-41-37.5-49.55-65.15-9-29.08-5.36-57.05,9.9-83.2Q72.08,103.59,130,5.64c4.42-7.53,11.51-7.51,16.07,0Q204.93,102.81,263.76,200c24.12,40,19.22,88.8-12.1,125.42-10.92,12.78-24.14,22.66-38,31.9-21.38,14.25-42.61,28.71-64,42.95a6.9,6.9,0,0,0-3.47,6.64c.17,18.34.07,36.69.1,55,0,3.57-1.38,6.35-4.6,7.92-3,1.48-6.43,1.54-8.71-.94a12.17,12.17,0,0,1-3.08-7.13C129.55,452.45,129.76,443.09,129.76,433.73ZM146.51,38.67v343.6c.92-.56,1.55-.92,2.15-1.33,19.34-13,38.58-26.22,58.05-39.06,14.71-9.71,28.15-20.68,38.35-35.23,11-15.73,17.28-33.14,17.34-52.37.06-17.48-5.4-33.46-14.51-48.39q-37.18-60.94-74-122.1C164.92,69,156,54.24,146.51,38.67Zm-16.82.85c-.92,1.29-1.31,1.75-1.61,2.26Q78.6,126,29.15,210.27C17.92,229.48,14,250.17,18.71,272.15,24.07,297.2,38,317,58.18,332c22.91,17,46.68,32.91,70.09,49.26a4.53,4.53,0,0,0,1.42.4Z"/></g></g></svg>