<svg xmlns="http://www.w3.org/2000/svg" viewBox="0 0 248.93 437.03"><defs><style>.cls-1{fill:#07512a;}</style></defs><g id="Layer_2" data-name="Layer 2"><g id="Layer_1-2" data-name="Layer 1"><path class="cls-1" d="M16.56,217h44V41.15A25.6,25.6,0,0,1,60.68,37a8,8,0,0,1,7.84-6.72,7.94,7.94,0,0,1,8.23,6.22A20.66,20.66,0,0,1,77.07,41q0,85.56,0,171.12v4.75H116v-4.49q0-100.71,0-201.44a23.81,23.81,0,0,1,.26-4.47A8.07,8.07,0,0,1,124.37,0a8.15,8.15,0,0,1,8.09,6.93,29.62,29.62,0,0,1,.12,4.11V216.85h38.94V45.38c0-6.2,2.75-9.7,7.73-9.94,4.65-.23,7.9,2.25,8.78,6.87a23.66,23.66,0,0,1,.27,4.46q0,82.76,0,165.5v4.65H232V213q0-53.17,0-106.34c0-6.59,3.21-10.1,9-9.86a7.6,7.6,0,0,1,7.43,6.18,28.77,28.77,0,0,1,.38,5.58c0,70-.21,140,.11,210.05.15,34.45-13.42,62.47-38.53,85.08C184,427.53,152.63,438.51,117,436.87c-49.67-2.3-96.2-36.51-111.86-82.22A93.13,93.13,0,0,1,0,324.21q.09-92.47,0-185c0-5.36,3.07-8.81,7.9-9s8.48,3.44,8.62,8.77c0,.75,0,1.5,0,2.25V217Zm.1,17c0,.84-.09,1.44-.09,2,0,29.7-.16,59.4.12,89.09a75.74,75.74,0,0,0,2.7,18.8C30,383.15,68,415.09,111.93,419.65c38.27,4,70.45-9.06,96.2-37.38,14.32-15.75,23.42-34.28,23.77-55.89.5-30.31.13-60.64.11-91a7,7,0,0,0-.3-1.41Z"/></g></g></svg>