<svg xmlns="http://www.w3.org/2000/svg" viewBox="0 0 373.79 295.7"><defs><style>.cls-1{fill:#024d26;}</style></defs><g id="Layer_2" data-name="Layer 2"><g id="Layer_1-2" data-name="Layer 1"><path class="cls-1" d="M141.36,122.36l47.71-87.23L204,8c2.62-4.78,6.26-8,12.08-8s9.33,3.31,12,8.14q71.08,130,142.3,259.89c3.66,6.68,5,13.23,1.33,20.21A13,13,0,0,1,360,295.67c-1.25.05-2.49,0-3.74,0h-338C3,295.69-4.29,283.82,2.61,270.07q34.08-67.86,68.23-135.68Q83.5,109.22,96.1,84c2.57-5.16,6.18-8.76,12.31-8.81s9.78,3.49,12.45,8.6C127.19,96,133.61,108,140,120.13,140.35,120.78,140.77,121.39,141.36,122.36ZM357.25,279,216,21c-.8,1.32-1.32,2.12-1.78,3Q183.42,80.22,152.54,136.5c-1.5,2.73-1.57,4.69-.11,7.42q19.09,35.72,37.91,71.57c4,7.52.3,13.57-8.17,13.58-27.7,0-55.4-.28-83.09.16-8.67.14-12.58-7.18-8.58-14.24,13.49-23.81,26.36-48,39.59-71.93a5.44,5.44,0,0,0,0-6.12c-3.42-6.06-6.54-12.3-9.79-18.46-3.81-7.23-7.64-14.46-11.68-22.1L16.79,279ZM141,157.73l-29.83,54.54h58.61C160.15,194.05,150.74,176.22,141,157.73Z"/></g></g></svg>