<svg xmlns="http://www.w3.org/2000/svg" viewBox="0 0 592.02 592.78"><defs><style>.cls-1{fill:#e5a039;}.cls-2{fill:#e59f38;}</style></defs><g id="Layer_2" data-name="Layer 2"><g id="Layer_1-2" data-name="Layer 1"><path class="cls-1" d="M592,592.78H0V0H592ZM409.26,274.35C425.05,205.93,440.74,138,456.53,69.56L526,98.69l51.74-88.18H10.51V570.22L106,428.6l87.63,31c43.59-79.69,87-159,130.53-238.62Zm172.25,308V24.22c-.91,1.45-1.46,2.27-2,3.12q-23.7,40.36-47.33,80.77c-1.53,2.63-2.86,3-5.58,1.85-8.55-3.77-17.21-7.29-25.83-10.91l-37-15.52c-.4,1.32-.79,2.37-1,3.44q-20.92,90.6-41.81,181.2c-1.28,5.57-3,11.24-3.06,16.87q-.28,146.61-.13,293.24v4.06Zm-380.22-.18h206v-3.25q0-145.3.06-290.61a5.17,5.17,0,0,0-2.79-5.07c-18-11.19-36-22.5-53.93-33.77L328,235.28c-.88,1.5-1.6,2.65-2.24,3.83q-61.53,112.5-123,225a13.08,13.08,0,0,0-1.39,6q-.12,53.25-.06,106.49ZM110,440.66,14.61,582.18h176a10.1,10.1,0,0,0,.21-1.35q0-54.54.06-109.08c0-2-.77-2.76-2.56-3.39C162.32,459.22,136.38,450,110,440.66Z"/><path class="cls-2" d="M151.23,190.21H96.72V140H151V85.46h50.15v54.33h54.57v50.34H201.38v54.61H151.23Zm39.44-39.79V95.9H161.5v54.61H107.14v29.34h54.58v54.32h29.17V179.63h54.29V150.42Z"/></g></g></svg>