<svg xmlns="http://www.w3.org/2000/svg" viewBox="0 0 491.39 492.02"><defs><style>.cls-1{fill:#c84944;}</style></defs><g id="Layer_2" data-name="Layer 2"><g id="Layer_1-2" data-name="Layer 1"><path class="cls-1" d="M246.31,0,491.39,245.39Q367.7,369.23,245.06,492L0,246.62ZM149.17,306.16a11.68,11.68,0,0,0,1,1.3q21.57,21.63,43.18,43.21c.62.62,1.65.81,2.37,1.35a29.43,29.43,0,0,1,4.54,3.74c1.19,1.36,1.61,3.41,2.86,4.67,13.08,13.23,26.27,26.35,39.36,39.56a12.58,12.58,0,0,1,1.83,3.33L401.21,246.18c-1.66-1.78-3.43-3.81-5.33-5.71q-22.42-22.5-44.89-45l-34.83-34.88c-22.48-22.51-45-45-67.37-67.58-2.73-2.77-4.13-2.56-6.76.08Q167.21,168.3,92.18,243.24a14.31,14.31,0,0,1-2.71,1.89L127,282.85c11.2-11.24,22.78-22.79,34.23-34.47a6.7,6.7,0,0,0,1.49-4.3q.17-21.93,0-43.87a7.86,7.86,0,0,1,2.49-6.25c11.38-11.23,22.63-22.59,33.94-33.89.75-.75,1.6-1.4,2.47-2.17l4.34,4.77c-1.1.9-2.23,1.7-3.2,2.66-10.52,10.5-21.07,21-31.45,31.61a8.84,8.84,0,0,0-2.3,5.43c-.22,10-.08,20-.12,30,0,5.87,1.42,12.36-.64,17.41s-7.63,8.37-11.7,12.42c-8.57,8.55-17.16,17.08-25.5,25.36l14,13.82c4.29-4.5,8.76-9.36,13.42-14,9.43-9.42,19-18.67,28.39-28.14a8.17,8.17,0,0,0,2.14-5.13c.16-14.75,0-29.5.19-44.25a8.82,8.82,0,0,1,2.29-5.44c8.24-8.53,16.7-16.86,25.08-25.26,4.13-4.13,4.52-4.09,7.75,1.11-8.8,8.81-17.69,17.58-26.38,26.55a8.83,8.83,0,0,0-2.29,5.46q-.28,21.18,0,42.37a11.07,11.07,0,0,1-3.67,8.81C177.68,277.54,163.53,291.81,149.17,306.16ZM266.29,392.1l-16.11,16.12,13.85,13-4.85,4.8-64.27-64.38-35.42,35.52C188.18,426,216.83,454.66,245,482.87L481.14,246.4l-67.87-68-35.19,35.21,43.14,43.09c4.2,4.19,4.2,4.2-1.24,8.09-3.77-3.87-7.52-7.88-11.5-11.63-.79-.75-3.09-1.19-3.67-.66-4.83,4.43-9.42,9.12-14.71,14.35l14.41,13.24-4.74,5.56-13.35-14.15c-5.12,5.13-10.12,10.15-15.54,15.57l13.25,13-4.51,5.29-13-13.29-15.79,15.78,13.05,12.76-4.46,4.74-13-13.3-15.95,15.91,13.85,13.19L339.39,346l-13-14.24-16,16,13.5,13.5c-3.55,4.73-3.57,4.75-7.71.55-3.4-3.44-6.76-6.93-10-10.25l-15.9,15.78c3.43,3.35,6.91,6.73,10.36,10.15,4.21,4.17,4.19,4.2-1.24,8.07-3.78-3.86-7.53-7.87-11.51-11.63-.79-.74-3.09-1.18-3.67-.65-4.84,4.43-9.43,9.11-14.74,14.35L284.05,401l-4.32,5.13C274.91,401.11,270.52,396.51,266.29,392.1ZM231.35,66.31l52.19,52.41,35.22-35.23L245.38,10,9.54,246.17,85.9,322.66,121.51,287,66,232.33l4.81-5c4.74,4.91,9.24,9.56,13.93,14.4,4.34-4.35,8.48-8.67,12.82-12.79,2.14-2,2.18-3.51,0-5.51-3.92-3.59-7.67-7.37-11.46-11l4.65-5.23L105,222.68c4.37-4.86,8-9.3,12.07-13.3,2.5-2.47,3-4.09.08-6.57-3.84-3.31-7.33-7-10.62-10.22l3.83-4.86L125.33,202c4.44-4.76,9.11-9.62,13.52-14.7.5-.58,0-2.79-.74-3.58-3.73-4-7.7-7.78-11.82-11.87l5-4.77,13.22,14,15.94-16-13.37-12.6,4.5-5.85,13.14,13.95L180.29,145l-13.81-12.66,4.56-5.19c4.62,4.74,9.14,9.36,13.45,13.77l16.12-16.14-13.76-12.88c1.63-1.82,2.94-3.27,4.81-5.33,4.4,4.82,8.77,9.59,12.88,14.08l16.25-16.27-13.68-12.8c1.52-1.75,2.79-3.24,4.54-5.27l13.72,14.59C229.84,96.4,234,92.07,238.31,88c2.21-2.08,2-3.5-.1-5.47C234.34,78.88,230.67,75,227,71.38Zm57.74,57.38,84.07,84.18,34.77-34.82L323.87,88.88ZM189.9,357.31l-45.44-45.55L110,346.32l45.48,45.55C166.79,380.51,178.49,368.77,189.9,357.31Zm-64.11-64.7-34.92,35c4.53,4.94,8.86,9.68,12.81,14l35.49-35.51Z"/></g></g></svg>