<svg xmlns="http://www.w3.org/2000/svg" viewBox="0 0 406.23 467.73"><defs><style>.cls-1{fill:#26aa98;}</style></defs><g id="Layer_2" data-name="Layer 2"><g id="Layer_1-2" data-name="Layer 1"><path class="cls-1" d="M.07,234.25q0-56.82-.07-113.63c0-2.85.78-4.43,3.3-5.88Q101.82,57.94,200.2.91c2.35-1.36,3.93-1.1,6.08.15q88.38,51.18,176.8,102.26c6.91,4,13.88,7.89,20.67,12.07a5.53,5.53,0,0,1,2.31,4q.17,114.75.17,229.5c0,2.55-1.3,3.44-3.09,4.48q-66.74,38.52-133.44,77.1-30.93,17.88-61.82,35.82a8.5,8.5,0,0,1-9.42,0Q100.87,409.79,3.19,353.43A5.51,5.51,0,0,1,0,347.88Q.15,291.06.07,234.25ZM9.51,349.73l190.27,110V322.49c-1.74-.08-3.34-.09-4.92-.23-7.07-.63-14.18-1-21.2-2-24.88-3.44-48.47-11.23-71.29-21.56a5.46,5.46,0,0,0-4.32-.07C68.64,315.51,39.3,332.5,9.51,349.73Zm387.09.1c-1.1-.66-1.73-1.06-2.38-1.43-28.14-16.26-56.31-32.47-84.37-48.86a7.08,7.08,0,0,0-7.46-.32c-26.16,11.95-53.36,20.15-82.16,22.43-4.43.35-8.87.65-13.26,1V459.48Zm-190.33-208c8.09.72,16,1.14,23.91,2.18,26.79,3.55,52.19,11.81,76.53,23.42a5.74,5.74,0,0,0,6.16-.31c18.74-10.94,37.55-21.75,56.34-32.61,9-5.22,18.07-10.48,27.54-16L206.27,8.37ZM9.51,118.52c28.35,16.4,56.11,32.41,83.81,48.53a6.08,6.08,0,0,0,6.5.24c25.75-12.2,52.58-20.8,81-23.84,6.28-.67,12.59-1,18.84-1.55V8.56C136.17,45.28,73.05,81.79,9.51,118.52Zm5,114c9.91,8,19,15.86,28.51,23,36.07,27,75.24,47.53,119.75,56.59,8.86,1.8,17.9,2.76,26.87,4.11-40.11-10.62-66.2-35-69.21-77-3.36-46.85,21.76-75.69,65.34-89.73C119.08,156.39,64.59,188.64,14.52,232.48Zm204.73-82.62c27.22,6.54,47.59,21.74,59.43,47.16s10.31,50.79-2.3,75.82c9.22,5.33,18.32,10.48,27.29,15.86a5.55,5.55,0,0,0,6.16.14,350.18,350.18,0,0,0,58.31-37.06c7.81-6.12,15.31-12.64,23.55-19.47-8.2-6.8-15.59-13.3-23.36-19.31-33.15-25.66-69.19-45.82-109.84-56.93C245.64,152.55,232.63,149.6,219.25,149.86Zm51.69,119.82c12.74-25.89,13.21-51.36-1.18-76.16-14-24.09-35.63-36.39-63.48-38.61-.08,1.17-.19,1.9-.19,2.62,0,24.12,0,48.23.11,72.35a5.53,5.53,0,0,0,2.56,3.77c12.66,7.49,25.42,14.82,38.15,22.18ZM138.51,275c17,23.33,39.18,35.54,67.66,34.52,26-.94,46.16-13,61.14-34-.53-.64-.64-.89-.84-1q-32.54-18.87-65.11-37.63a4.3,4.3,0,0,0-3.62.29c-3.77,2.19-7.38,4.66-11.06,7ZM313.38,294.1,399.68,344V232.88A364,364,0,0,1,313.38,294.1ZM93,294.15A364.89,364.89,0,0,1,6.68,233V344.09ZM399.77,124.07l-82.28,47.58c14.5,9.3,29.13,17.87,42.85,27.71s26.45,20.89,39.43,31.25ZM6.63,231.73a367.5,367.5,0,0,1,83.06-59.58l-83.06-48Zm193.21-76.8c-27.25,2.11-48,14.44-62.84,37.33l62.84,36.31Zm-6.25,77.29L134.31,198c-11.94,21.2-10.72,52.46,1.5,71.3Zm22.57,83.17c29.21-1.59,56.66-9.58,83.59-21.81L273,278.16C259,298.52,240.06,310.75,216.16,315.39Z"/></g></g></svg>