<?xml version="1.0" encoding="utf-8"?>
<!DOCTYPE svg PUBLIC "-//W3C//DTD SVG 1.1//EN" "http://www.w3.org/Graphics/SVG/1.1/DTD/svg11.dtd">
<svg version="1.1" id="Layer_1" xmlns="http://www.w3.org/2000/svg" xmlns:xlink="http://www.w3.org/1999/xlink" width="360px" height="488px" viewBox="10.5 27.5 180 244">
<path d="M13.5,254.334c0-52.667,0-166.334,0-209C72.333,24,131.334,25,187.5,45.333c0,43.667,0,149.667,0,209
	C139,274,63.333,274.334,13.5,254.334z"/>
<path fill="#FFC62B" stroke="#000000" d="M23,81.667c0-12.333,0-20.269,0-28.333c63.333-21.667,116.167-13.998,155.334,0
	c0,14.167,0,18,0,28.333C122,62.333,69.667,67.333,23,81.667z"/>
<path fill="#FFC62B" stroke="#000000" d="M100,143.667c0-15.348,0-49.2,0-67.667c-32.333,1.333-57.346,8-77,16c0,21.5,0,59,0,59
	h67.167c0,0-8.525-5.559-27.667-20.333c-11.327-8.743-31.333-22.5-33.667-32.333c6.784-0.708,20.251,8.522,31.5,16.333
	C81.152,130.086,91.357,137.865,100,143.667z"/>
<path fill="#FFC62B" stroke="#000000" d="M100.009,158.833c5.491,4.334,15.036,10.006,29.325,22.834c1.158,1.039-5.834,6-11.167,8.5
	c0,2.5,0,2.5,1,4c6.521-1.164,13.66-6.897,17.167-9.167c3.997,3.131,14,9.333,20.833,14.833c1.167,5.334,8,8.834,12.167,3.5
	c3.41-4.366,1-11.166-6.5-11c-3.667-3-11.245-9.832-19.167-16c2.418-4.176,4.419-13.771,4.167-18c-2.072,0-2.072,0-4.334-0.166
	c0,4.666-4.543,13.361-5.333,12.833C124.003,161.524,112,152,112,152h66.334c0,0,0,41,0,60.334c-22,8.333-47.682,10.527-77.667,12
	C100.157,209.556,100.5,168.5,100.009,158.833z"/>
<path fill="#FFC62B" stroke="#000000" d="M87.167,207.833c-4.667-5.166-5.432-7.266-9.333-12c0-6.666-0.5-14-4.5-18.666
	c-2.147-2.504-6.167-5.667-11.833-5.834c-7.832-0.23-16,7.5-16,7.5l-11.333-1.5c0,0,7.333-16.333,25.167-16.333
	c13.667,0,19.112,8.292,22.351,15.051C85.333,183.667,84,198.5,87.167,207.833"/>
<path fill="#FFC62B" stroke="#000000" d="M38.5,197.333c7.167-5.833,8.52-10.686,11-14.5c2.167-3.333,6.333-5,10.667-5
	c5.833,0,9.402,3.224,11.167,5.833c1.539,2.275,2.167,4.501,1.833,10.834c-0.162,3.079-0.508,9.039,0,12.333
	c0.253,1.641,2,7.334,2,7.334s-5-2.834-10.333-3.334c-3.529-0.331-8,0.5-14.167,0.5c1.742-3.5,2.667-7.333,4-13.5
	c2.957-1.072,5.583-1.194,7.5-1.833c2.5-0.833,4.542-6.401,1.167-7.667c-4-1.5-8.167-0.166-11.5,1.667S47.167,196,38.5,197.333z"/>
<path fill="#FFC62B" stroke="#000000" d="M106.5,108.333c6,0,15.5,0,15.5,0s1.375-6.958,9.457-8.978
	c1.71-2.605,3.693-3.355,5.377-3.355c4.416,0,6.638,4.026,7.5,4c1.089-0.033,2.833-9.667,12.5-9.667
	c7.5,0,15.688,6.167,15.666,17.667c-0.013,6.339-2,12.667-8.666,16.167c-6.353,3.335-15.667,1.167-15.667,1.167
	s-2.167,1.333-6.167,1.5c0,6.167,3.753,7.565,7.667,10.167c3.92,2.604,8,3.748,8,7.167c-9.333,0-40.333,0-40.333,0
	s0.524-4.374,5.666-6.333c4.953-1.888,10.167-6.658,10.167-11.167c0,0-11.145-0.995-17.667-13.167
	C114.949,112.472,108.334,113.5,106.5,108.333z M158.875,113.5c-1.291,5.167-8.375,9.875-8.375,9.875s1.667,1.293,5.667,1.292
	c6.929-0.001,14.208-4.75,14.208-16.667c0-5.583-4.375-16.167-13.25-15.75c-2.22,0.104-7.875,4.125-7.875,4.125
	s1.9,1.214,2.084,3.792c0.166,2.333-2.084,3.708-2.084,3.708c1.75,0.542,2.25,2.542,2.25,4.125c0,0,10.834-0.083,14.75,0
	C166.334,111.333,158.875,113.5,158.875,113.5z"/>
<path fill="#FFC62B" stroke="#000000" d="M110.75,89.333c0.584,4.333,6.75,5.333,1.167,12.083
	C112.417,96.333,107.334,98.083,110.75,89.333z"/>
<path d="M26.918,55.63l4.332-1.391l0.125,18.26l5-1.625v4.418l-9.266,2.798L26.918,55.63z"/>
<path d="M40.344,51.372l10.142-1.719l0.032,3.796l-5.367,0.89l0.042,4.988l5.168-1.082l0.032,3.796l-5.168,1.082l0.053,6.086
	l5.081-1.587l0.032,3.795l-9.856,2.417L40.344,51.372z"/>
<path d="M63.718,68.442l-1.221-4.088l-3.375,0.029l-0.872,5.148l-4.63,1.052l5.255-23.628l4.145,0.014L68.375,68L63.718,68.442z
	 M61.631,60.549l-0.408-5.324l-1.218,5.364L61.631,60.549z"/>
<path d="M77.846,44.464c1.911-0.016,4.696-0.04,6.546,3.74c0.577,1.188,1.444,3.25,1.482,7.643c0.011,1.349,0.046,5.396-2.076,8.52
	c-1.701,2.524-4.511,2.548-5.596,2.557l-6.397,0.055l-0.191-22.461L77.846,44.464z M76.151,48.909l0.127,13.87l2.035-0.029
	c1.982,0.003,2.229-2.975,2.313-7.029c0.125-6.068-0.741-7.478-4.045-7.449L76.151,48.909z"/>
<path d="M89.521,42.947l10.463,0.042l0.033,3.796l-5.6-0.07l0.043,4.988l5.082-0.074l0.031,3.796l-5.209,0.074l0.052,6.086
	l5.563-0.082l0.031,3.795l-10.298,0.11L89.521,42.947z"/>
<path d="M104.937,42.924l6.176-0.061c2.526-0.021,3.973,1.529,4.263,2.012c0.938,1.563,1.598,2.587,1.438,4.777
	c-0.123,1.686-0.599,3.117-1.375,3.973c-0.48,0.529,0.242-0.023-2.187,1.704c0.707,1.815,0.707,1.815,2.437,5.409l2.625,4.671
	l-4.872-0.089l-2.497-4.873c-0.781-1.917-1.477-2.203-1.477-2.203l0,0l0.061,7.113l-4.399,0.029L104.937,42.924z M109.411,51.687
	c0,0,1.252,0.101,1.839-0.187c1.177-0.543,1.006-1.189,1-1.848c-0.008-0.91-0.357-1.531-1-2.027
	c-0.641-0.497-1.875-0.125-1.875-0.125L109.411,51.687z"/>
<path d="M137.231,46.07l4.026,0.252l0.075,8.846l3.188,0.552l-0.069-8.174l3.879,0.41l0.191,22.461l-3.892-1.035l-0.084-9.819
	l-3.149-0.218l0.084,9.819l-4.059-0.633L137.231,46.07z"/>
<path d="M154.671,50.306l3.6,0.658l0.191,22.461l-3.6-0.658L154.671,50.306z"/>
<path d="M164.563,74.938v-22.5c0,0,4.438,0.875,7.938,3.283c2.501,1.721,3.511,5.024,3.313,7.279
	c-0.313,3.563-1.79,4.156-3.313,4.813c-0.847,0.365-3.688,0-3.688,0v8.5L164.563,74.938z M171.563,61.866
	c0-2.366-2.688-3.241-2.688-3.241v4.625C168.875,63.25,171.563,64.063,171.563,61.866z"/>
<path fill="#FFC62B" stroke="#000000" d="M23,247.459c34.833,15.041,102.666,20.613,154.667,0c0-7.094,0-18.645,0-26.292
	c-46.917,14.5-98.833,16.499-154.667,0C23,229.167,23,238.167,23,247.459z"/>
<path d="M131.334,50.708V46.07c0,0-2.125-1.778-4.667-1.778c-4.042,0-5.837,3.38-5.667,6.014c0.25,3.872,2.548,5.199,3.75,6.694
	c1.468,1.826,3.854,3.973,1.959,5.458c-1.542,1.208-5.375-1.083-5.375-1.083l0.125,4.033c0,0,3.637,1.666,5.035,1.675
	c3.208,0.021,5.506-3.28,5.506-5.217c0-3.881-2.304-5.589-3.583-7.116c-1.175-1.403-4.167-3.042-3.292-5.583
	c0.491-1.428,2.605-1.471,3.292-0.958C129.759,49.21,131.334,50.708,131.334,50.708z"/>
<polygon points="28.583,225.5 28.583,247.333 38.167,249.833 38.5,245.75 32.583,244.417 32.417,238.833 37.25,240.167 
	37.25,236.083 32.417,235.25 32.417,230.5 38.083,231.667 38.167,227.583 "/>
<polygon points="41.75,229.167 45.333,240.5 41.75,250.333 45.333,251.583 47.25,247.333 49.5,252.667 53.417,253.25 
	49.667,241.209 53.417,230.75 49.583,230.583 47.583,233.75 45.5,229.75 "/>
<path d="M67.417,238.5v-5c0,0-2.272-1.235-4.5-0.917c-4.667,0.667-6.5,5.083-6.5,10.667c0,8,2.778,9.926,5.5,11.667
	c2.083,1.333,5.5,0.666,5.5,0.666v-5.166c0,0-2.167,1.146-3.75,0.75c-3.185-0.796-3-5.424-3-7.542c0-2.416,1.022-5.073,2.5-5.959
	C65.25,236.417,67.417,238.5,67.417,238.5z"/>
<polygon points="71.75,234.583 81.5,235.667 81.5,239.5 76.625,238.833 76.625,243.25 81.5,244 81.5,248.083 76.625,247.5 
	76.625,253.25 81.5,253.917 81.5,257.5 71.75,256.417 "/>
<polygon points="87.167,236.417 87.167,258.5 97.417,258.5 97.417,254.667 91.583,254.417 91.5,236.417 "/>
<polygon points="101.583,236.417 101.583,258.5 112.25,258.5 112.25,254.5 106.583,254.417 106.5,236.417 "/>
<polygon points="116.583,257.5 116.583,235.5 126.333,235 126.333,238.417 121.458,239.083 121.458,243.5 126.333,243.333 
	126.333,247.459 121.458,247.459 121.458,253.25 126.333,253.25 126.333,256.5 "/>
<polygon points="131.417,256.25 131.417,233.417 136,233.417 140.083,242.583 140.5,232.583 144.083,232.583 144.083,254.25 
	139.833,254.417 136.583,246.041 136.25,255.167 "/>
<path d="M159.75,233.25v-4.083c0,0-3.461-1.385-6.833,1.333c-2.584,2.083-3.834,6.542-3.834,11.75c0,6.25,2.866,9.655,5.667,9.667
	c3,0.013,5-1.417,5-1.417v-4.459c0,0-2.75,2.042-4.167,1.418c-1.507-0.664-1.916-3.376-2.083-6.25c-0.12-2.069,0-6.209,2.583-7.876
	C156.854,232.836,159.75,233.25,159.75,233.25z"/>
<polygon points="164.583,249.167 164.583,227.167 173.25,224.917 173.25,228.5 168.916,230 168.916,234.25 173.25,233.25 
	173.25,237.042 168.916,238.667 168.916,243.583 173.25,242.583 173.25,246.583 "/>
</svg>